<svg version="1.1" xmlns="http://www.w3.org/2000/svg" xmlns:xlink="http://www.w3.org/1999/xlink" width="512" height="512" viewBox="0,0,256,256"><g fill="#262626" fill-rule="nonzero" stroke="none" stroke-width="1" stroke-linecap="butt" stroke-linejoin="miter" stroke-miterlimit="10" stroke-dasharray="" stroke-dashoffset="0" font-family="none" font-weight="none" font-size="none" text-anchor="none" style="mix-blend-mode: normal"><g transform="scale(10.66667,10.66667)"><path d="M14,7v-6.54c0.913,0.346 1.753,0.879 2.465,1.59l3.484,3.486c0.712,0.711 1.245,1.551 1.591,2.464h-6.54c-0.552,0 -1,-0.449 -1,-1zM21.976,10h-6.976c-1.654,0 -3,-1.346 -3,-3v-6.976c-0.161,-0.011 -0.322,-0.024 -0.485,-0.024h-4.515c-2.757,0 -5,2.243 -5,5v9h3.965l1.703,-2.555c0.197,-0.296 0.542,-0.473 0.894,-0.443c0.356,0.022 0.673,0.232 0.833,0.551l2.229,4.459l1.044,-1.566c0.186,-0.278 0.498,-0.445 0.832,-0.445h4.5c0.552,0 1,0.448 1,1c0,0.552 -0.448,1 -1,1h-3.965l-1.703,2.555c-0.186,0.279 -0.499,0.445 -0.832,0.445c-0.021,0 -0.042,0 -0.062,-0.002c-0.356,-0.022 -0.673,-0.232 -0.833,-0.551l-2.229,-4.459l-1.044,1.566c-0.186,0.278 -0.498,0.445 -0.832,0.445h-4.5v3c0,2.757 2.243,5 5,5h10c2.757,0 5,-2.243 5,-5v-8.515c0,-0.163 -0.013,-0.324 -0.024,-0.485z"></path></g></g></svg>