<svg width="24" height="24" viewBox="0 0 24 24" fill="none" xmlns="http://www.w3.org/2000/svg">
<path d="M5.62497 4.92185V0.411865L0.411865 5.62497H4.92185C5.30955 5.62497 5.62497 5.30955 5.62497 4.92185Z" fill="#262626"/>
<path d="M6.32812 19.7812C7.4931 19.7812 8.4375 18.8369 8.4375 17.6719C8.4375 16.5069 7.4931 15.5625 6.32812 15.5625C5.16315 15.5625 4.21875 16.5069 4.21875 17.6719C4.21875 18.8369 5.16315 19.7812 6.32812 19.7812Z" fill="#262626"/>
<path d="M22.3594 20.7188H15.3281C14.422 20.7188 13.6875 21.4533 13.6875 22.3594V24H23.2969C23.6852 24 24 23.6852 24 23.2969V22.3594C24 21.4533 23.2655 20.7188 22.3594 20.7188Z" fill="#262626"/>
<path d="M15.954 19.3125L15.3339 13.1127C15.235 12.123 15.561 11.1323 16.2284 10.3949C16.7686 9.79791 17.4961 9.40725 18.2812 9.27994V0.703125C18.2812 0.314812 17.9664 0 17.5781 0H7.03125V4.92188C7.03125 6.08498 6.08498 7.03125 4.92188 7.03125H0V23.2969C0 23.6852 0.314812 24 0.703125 24H12.2812V22.3594C12.2812 20.6793 13.6481 19.3125 15.3281 19.3125H15.954ZM9.14062 2.8125H14.7656C15.1539 2.8125 15.4688 3.12731 15.4688 3.51562C15.4688 3.90394 15.1539 4.21875 14.7656 4.21875H9.14062C8.75231 4.21875 8.4375 3.90394 8.4375 3.51562C8.4375 3.12731 8.75231 2.8125 9.14062 2.8125ZM6.32812 21.1875C4.38961 21.1875 2.8125 19.6104 2.8125 17.6719C2.8125 15.7334 4.38961 14.1562 6.32812 14.1562C8.26664 14.1562 9.84375 15.7334 9.84375 17.6719C9.84375 19.6104 8.26664 21.1875 6.32812 21.1875ZM13.3594 12.6562H3.51562C3.12731 12.6562 2.8125 12.3414 2.8125 11.9531C2.8125 11.5648 3.12731 11.25 3.51562 11.25H13.3594C13.7477 11.25 14.0625 11.5648 14.0625 11.9531C14.0625 12.3414 13.7477 12.6562 13.3594 12.6562ZM13.3594 9.84375H3.51562C3.12731 9.84375 2.8125 9.52894 2.8125 9.14062C2.8125 8.75231 3.12731 8.4375 3.51562 8.4375H13.3594C13.7477 8.4375 14.0625 8.75231 14.0625 9.14062C14.0625 9.52894 13.7477 9.84375 13.3594 9.84375ZM14.7656 7.03125H9.14062C8.75231 7.03125 8.4375 6.71644 8.4375 6.32812C8.4375 5.93981 8.75231 5.625 9.14062 5.625H14.7656C15.1539 5.625 15.4688 5.93981 15.4688 6.32812C15.4688 6.71644 15.1539 7.03125 14.7656 7.03125Z" fill="#262626"/>
<path d="M16.7331 12.9728L17.3671 19.3125H20.3202L20.9542 12.9728C21.0791 11.7241 20.0986 10.6406 18.8437 10.6406C17.5888 10.6406 16.6083 11.7241 16.7331 12.9728Z" fill="#262626"/>
</svg>
