<svg width="24" height="24" viewBox="0 0 24 24" fill="none" xmlns="http://www.w3.org/2000/svg">
<g clip-path="url(#clip0_567_2659)">
<path d="M23.2969 8.90381H21.7969C21.4086 8.90381 21.0938 9.21862 21.0938 9.60693V19.9194C21.0938 20.3077 21.4086 20.6226 21.7969 20.6226H23.2969C23.6852 20.6226 24 20.3077 24 19.9194V9.60693C24 9.21862 23.6852 8.90381 23.2969 8.90381Z" fill="#262626"/>
<path d="M13.5956 4.46631L14.7675 2.43658C15.0263 1.98817 14.8727 1.4148 14.4243 1.15591L13.6124 0.687158C13.164 0.428267 12.5906 0.581924 12.3318 1.03033L11.1599 3.06006L13.5956 4.46631Z" fill="#262626"/>
<path d="M0.835183 16.4672C1.23695 16.6963 1.74962 16.5467 1.98086 16.1462L7.72684 6.19386C7.19083 6.0665 6.61876 6.1798 6.16862 6.51739L4.17798 8.01037C3.5987 8.44485 3.11739 8.99648 2.76545 9.62929L0.208746 14.2266C-0.230145 15.0158 0.045152 16.0111 0.827168 16.4626C0.82984 16.4642 0.832512 16.4657 0.835183 16.4672Z" fill="#262626"/>
<path d="M5.00436 14.0668H8.05274L12.8925 5.68414L10.4568 4.27789L4.80078 14.0744C4.86814 14.0699 4.93588 14.0668 5.00436 14.0668Z" fill="#262626"/>
<path d="M2.27052 18.457L1.54307 19.717C1.50885 19.7763 1.48349 19.8402 1.46774 19.9068L0.796909 22.7443C0.668519 23.2873 1.32397 23.6657 1.7301 23.283L3.85203 21.2834C3.90181 21.2365 3.94452 21.1825 3.97874 21.1232L4.55389 20.127C3.54978 19.9776 2.70435 19.3364 2.27052 18.457Z" fill="#262626"/>
<path d="M10.5998 20.1606H6.15825L5.23022 21.7679C5.52863 22.0772 5.94708 22.2699 6.41077 22.2699C7.31686 22.2699 8.05139 21.5354 8.05139 20.6293C8.05139 21.5354 8.78593 22.2699 9.69202 22.2699C10.5981 22.2699 11.3326 21.5354 11.3326 20.6293V20.5222C11.1624 20.4443 10.7727 20.2463 10.5998 20.1606Z" fill="#262626"/>
<path d="M13.3976 7.62177L9.67652 14.0668H10.7813C11.1696 14.0668 11.4844 14.3817 11.4844 14.77C11.4844 15.1582 11.1697 15.4731 10.7814 15.4731H5.00439C4.0983 15.4731 3.36377 16.2076 3.36377 17.1137C3.36377 18.0198 4.0983 18.7544 5.00439 18.7544H10.9316L11.7093 19.1429C13.0401 19.8083 14.5308 20.1606 16.0201 20.1606C17.254 20.1606 18.5295 19.9181 19.6876 19.4567V10.3167H18.5794L13.3976 7.62177Z" fill="#262626"/>
</g>
<defs>
<clipPath id="clip0_567_2659">
<rect width="24" height="24" fill="white"/>
</clipPath>
</defs>
</svg>
