<svg width="24" height="24" viewBox="0 0 24 24" fill="none" xmlns="http://www.w3.org/2000/svg">
<path d="M0 16.1121V18.5951C0 18.9834 0.314812 19.2982 0.703125 19.2982H23.2969C23.6852 19.2982 24 18.9834 24 18.5951V16.1121H0Z" fill="#262626"/>
<path d="M24 14.7059V1.3371C24 0.948785 23.6852 0.633972 23.2969 0.633972H0.703125C0.314812 0.633972 0 0.948785 0 1.3371V14.7059H24ZM16.0142 8.25979L10.0555 11.7001C9.94673 11.7629 9.82533 11.7943 9.70392 11.7943C9.58252 11.7943 9.46111 11.7629 9.35236 11.7001C9.13481 11.5745 9.0008 11.3424 9.0008 11.0912V4.21058C9.0008 3.95938 9.13481 3.72725 9.35236 3.60168C9.56991 3.47605 9.83794 3.47605 10.0555 3.60168L16.0142 7.04197C16.2317 7.16755 16.3657 7.39968 16.3657 7.65088C16.3657 7.90208 16.2317 8.13421 16.0142 8.25979Z" fill="#262626"/>
<path d="M9.26285 20.7045V21.9597H9.0603C8.67199 21.9597 8.35718 22.2745 8.35718 22.6629C8.35718 23.0512 8.67199 23.366 9.0603 23.366H14.9395C15.3278 23.366 15.6426 23.0512 15.6426 22.6629C15.6426 22.2745 15.3278 21.9597 14.9395 21.9597H14.7369V20.7045H9.26285Z" fill="#262626"/>
<path d="M10.407 9.87334L14.2563 7.6509L10.407 5.42847V9.87334Z" fill="#262626"/>
</svg>
