<svg width="24" height="24" viewBox="0 0 24 24" fill="none" xmlns="http://www.w3.org/2000/svg">
<path d="M15 2.15625V0.703125C15 0.314812 14.6852 0 14.2969 0H2.57812C2.18981 0 1.875 0.314812 1.875 0.703125V16.1719C1.875 16.5602 2.18981 16.875 2.57812 16.875H4.03125V4.26562C4.03125 3.10252 4.97752 2.15625 6.14062 2.15625H15Z" fill="#262626"/>
<path d="M18.5625 5.71875V4.26562C18.5625 3.87731 18.2477 3.5625 17.8594 3.5625H6.14062C5.75231 3.5625 5.4375 3.87731 5.4375 4.26562V19.7344C5.4375 20.1227 5.75231 20.4375 6.14062 20.4375H7.59375V7.82812C7.59375 6.66502 8.54002 5.71875 9.70312 5.71875H18.5625Z" fill="#262626"/>
<path d="M19.0781 23.9332C20.5851 23.6472 21.7722 22.4601 22.0582 20.9531H19.0781V23.9332Z" fill="#262626"/>
<path d="M21.4219 7.125H9.70312C9.31481 7.125 9 7.43981 9 7.82812V23.2969C9 23.6852 9.31481 24 9.70312 24H17.6719V20.25C17.6719 19.8617 17.9867 19.5469 18.375 19.5469H22.125V7.82812C22.125 7.43981 21.8102 7.125 21.4219 7.125Z" fill="#262626"/>
</svg>
