<svg xmlns="http://www.w3.org/2000/svg" enable-background="new 0 0 25 25" viewBox="0 0 25 25" width="256" height="256"><path d="M12.5,5.7c-1.4,0-2.6,1.2-2.6,2.6s1.2,2.6,2.6,2.6c1.5,0,2.6-1.2,2.6-2.6S14,5.7,12.5,5.7z" fill="#000000" class="color000 svgShape"/><path d="M20.6,1.9H4.4c-1.6,0-2.9,1.3-2.9,2.9V16l-0.8,3.6l-0.2,0.9c-0.1,0.6,0,1.3,0.4,1.8c0.3,0.4,0.8,0.7,1.4,0.8   c0.1,0,0.2,0,0.3,0h19.8c0.1,0,0.2,0,0.3,0c0.5-0.1,1-0.3,1.4-0.8c0.3-0.4,0.5-0.8,0.5-1.3c0-0.1,0-0.3,0-0.5l-0.2-0.9L23.4,16V4.8   C23.4,3.2,22.2,1.9,20.6,1.9z M21.5,15.2h-3.4c-0.4-1.4-1.2-2.6-2.3-3.4c-0.3-0.2-0.6-0.2-0.9-0.1c-0.7,0.4-1.5,0.7-2.3,0.7   c-0.8,0-1.6-0.2-2.3-0.7c-0.3-0.2-0.7-0.1-0.9,0.1c-1.1,0.8-2,2-2.3,3.4H3.5V4.8c0-0.5,0.4-0.9,0.9-0.9h16.2c0.5,0,0.9,0.4,0.9,0.9   V15.2z" fill="#000000" class="color000 svgShape"/></svg>