<svg height="512pt" viewBox="-46 0 512 512.00103" width="512pt" xmlns="http://www.w3.org/2000/svg"><path d="m404.925781 0h-325.726562c-8.5625 0-15.5 6.941406-15.5 15.5v17.199219h186.886719c12.421874 0 24.097656 4.835937 32.878906 13.621093l90.644531 90.644532v-.003906c8.78125 8.78125 13.621094 20.460937 13.621094 32.882812v278.460938h17.199219c8.558593 0 15.5-6.941407 15.5-15.5v-417.304688c-.003907-8.558594-6.941407-15.5-15.503907-15.5zm0 0"/><path d="m235.085938 169.84375v-106.144531h-219.585938c-8.558594 0-15.5 6.9375-15.5 15.5v417.300781c0 8.5625 6.941406 15.5 15.5 15.5h325.730469c8.5625 0 15.5-6.9375 15.5-15.5v-311.15625h-106.144531c-8.5625 0-15.5-6.941406-15.5-15.5zm0 0"/><path d="m347.652344 154.34375-81.566406-81.566406v81.566406zm0 0"/></svg>